<?xml version="1.0" encoding="utf-8"?>
<!-- Generator: Adobe Illustrator 22.0.1, SVG Export Plug-In . SVG Version: 6.00 Build 0)  -->
<svg version="1.1" id="Layer_1" xmlns="http://www.w3.org/2000/svg" xmlns:xlink="http://www.w3.org/1999/xlink" x="0px" y="0px"
	 viewBox="0 0 512 512" style="enable-background:new 0 0 512 512;" xml:space="preserve">
<style type="text/css">
	.st0{fill:#4FBC83;}
	.st1{fill:#FEDD00;}
	.st2{fill:#FFFFFF;}
	.st3{fill:#F8991D;}
	.st4{fill:#010101;}
</style>
<rect class="st0" width="512" height="512"/>
<g transform="translate(0 1)">
	<path class="st1" d="M379.6,193.4h-98.3l91.2-143.6H257.6L149.9,265.2h84.7l-84.7,201L379.6,193.4z"/>
	<path class="st2" d="M286.3,49.8h-28.7L149.9,265.2h28.7L286.3,49.8z"/>
	<path class="st3" d="M343.7,193.4L171.4,398l-28.7,68.2l229.7-272.8H343.7z"/>
	<path class="st4" d="M149.9,473.3c-1.4,0-2.9,0-3.6-0.7c-2.9-2.2-4.3-5.7-2.9-8.6l80.4-191.6h-73.9c-2.2,0-5-1.4-6.5-3.6
		c-1.4-2.2-1.4-5,0-7.2L251.1,46.3c1.4-2.2,3.6-3.6,6.5-3.6h114.8c2.9,0,5,1.4,6.5,3.6s1.4,5,0,7.2l-84,132.8h84.7
		c2.9,0,5,1.4,6.5,4.3s0.7,5.7-0.7,7.9L155.6,471.2C154.2,472.6,152,473.3,149.9,473.3z M161.4,258h73.2c2.2,0,4.3,1.4,5.7,2.9
		c1.4,2.2,1.4,4.3,0.7,6.5l-66,157.9l189.5-224.7h-83.3c-2.9,0-5-1.4-6.5-3.6c-1.4-2.2-1.4-5,0-7.2L359.5,57h-97.6L161.4,258z"/>
</g>
</svg>
